<?xml version="1.0" encoding="UTF-8" standalone="no"?>
<!-- Created with Inkscape (http://www.inkscape.org/) -->

<svg
   width="1024"
   height="720"
   viewBox="0 0 270.93333 190.50001"
   version="1.1"
   id="svg5"
   inkscape:version="1.1.1 (3bf5ae0d25, 2021-09-20)"
   sodipodi:docname="pic1.svg"
   xmlns:inkscape="http://www.inkscape.org/namespaces/inkscape"
   xmlns:sodipodi="http://sodipodi.sourceforge.net/DTD/sodipodi-0.dtd"
   xmlns="http://www.w3.org/2000/svg"
   xmlns:svg="http://www.w3.org/2000/svg">
  <sodipodi:namedview
     id="namedview7"
     pagecolor="#1a1c1e"
     bordercolor="#666666"
     borderopacity="1.0"
     inkscape:pageshadow="2"
     inkscape:pageopacity="0"
     inkscape:pagecheckerboard="0"
     inkscape:document-units="px"
     showgrid="false"
     units="px"
     inkscape:showpageshadow="false"
     showborder="true"
     inkscape:zoom="3.6233469"
     inkscape:cx="167.38668"
     inkscape:cy="266.74233"
     inkscape:window-width="1920"
     inkscape:window-height="1017"
     inkscape:window-x="-8"
     inkscape:window-y="-8"
     inkscape:window-maximized="1"
     inkscape:current-layer="layer1" />
  <defs
     id="defs2">
    <filter
       inkscape:collect="always"
       style="color-interpolation-filters:sRGB"
       id="filter1395"
       x="-0.04565181"
       y="-0.064954641"
       width="1.0913036"
       height="1.1299093">
      <feGaussianBlur
         inkscape:collect="always"
         stdDeviation="4.4785818"
         id="feGaussianBlur1397" />
    </filter>
  </defs>
  <g
     inkscape:label="Layer 1"
     inkscape:groupmode="layer"
     id="layer1">
    <rect
       style="opacity:0.439024;fill:#000000;fill-opacity:1;fill-rule:evenodd;stroke:none;stroke-width:0.264583;stroke-linecap:square;stroke-miterlimit:0;stroke-opacity:1;filter:url(#filter1395)"
       id="rect1241"
       width="235.44733"
       height="165.4785"
       x="17.743019"
       y="12.51075"
       ry="2.9609256" />
    <rect
       style="fill:none;fill-opacity:1;fill-rule:evenodd;stroke:#40454a;stroke-width:0.529167;stroke-linecap:square;stroke-miterlimit:0;stroke-dasharray:none;stroke-opacity:1"
       id="rect846-1"
       width="235.44733"
       height="165.4785"
       x="17.478426"
       y="12.246166"
       ry="2.9609225" />
    <rect
       style="fill:#232629;fill-opacity:1;fill-rule:evenodd;stroke:#2d3034;stroke-width:0.529167;stroke-linecap:square;stroke-miterlimit:0;stroke-dasharray:none;stroke-opacity:1"
       id="rect846"
       width="235.44733"
       height="165.4785"
       x="17.743019"
       y="12.51075"
       ry="2.9609225" />
    <g
       id="g6136"
       transform="translate(-0.52916668,0.52916668)">
      <circle
         style="opacity:1;fill:#fa4c4c;fill-opacity:1;fill-rule:evenodd;stroke:none;stroke-width:0.529167;stroke-linecap:square;stroke-miterlimit:0;stroke-dasharray:none;stroke-opacity:1"
         id="path5159"
         cx="27.589809"
         cy="18.645273"
         r="1.8985671" />
      <circle
         style="fill:#fbff87;fill-opacity:1;fill-rule:evenodd;stroke:none;stroke-width:0.529167;stroke-linecap:square;stroke-miterlimit:0;stroke-dasharray:none;stroke-opacity:1"
         id="path5159-0"
         cx="35.527309"
         cy="18.645273"
         r="1.8985671" />
      <circle
         style="fill:#aeff7d;fill-opacity:1;fill-rule:evenodd;stroke:none;stroke-width:0.529167;stroke-linecap:square;stroke-miterlimit:0;stroke-dasharray:none;stroke-opacity:1"
         id="path5159-0-3"
         cx="43.464809"
         cy="18.645273"
         r="1.8985671" />
    </g>
    <path
       style="fill:none;stroke:#2d3034;stroke-width:0.314658px;stroke-linecap:butt;stroke-linejoin:miter;stroke-opacity:1"
       d="M 25.109043,25.411589 H 246.94926"
       id="path6038" />
    <rect
       style="opacity:1;fill:#232629;fill-opacity:1;fill-rule:evenodd;stroke:none;stroke-width:0.417254;stroke-linecap:square;stroke-miterlimit:0;stroke-dasharray:none;stroke-opacity:1"
       id="rect6252"
       width="40.264317"
       height="4.874413"
       x="24.88497"
       y="29.382887"
       ry="0.34467316" />
    <path
       d="m 26.312285,32.719598 c 0.123087,0.123087 0.322981,0.123087 0.446068,0 l 1.260413,-1.260412 c 0.09059,-0.09059 0.117179,-0.225496 0.06794,-0.34366 -0.04923,-0.118163 -0.16346,-0.19497 -0.29147,-0.19497 l -2.520825,9.82e-4 c -0.127026,0 -0.242236,0.07681 -0.291471,0.194969 -0.04923,0.118164 -0.02166,0.253068 0.06794,0.34366 l 1.260413,1.260412 z"
       id="path7874"
       style="fill:#454a4f;fill-opacity:1;stroke-width:0.00984695" />
    <rect
       style="opacity:1;fill:#454a4f;fill-opacity:1;fill-rule:evenodd;stroke:none;stroke-width:0.529167;stroke-linecap:square;stroke-miterlimit:0;stroke-dasharray:none;stroke-opacity:1"
       id="rect7959"
       width="32.529556"
       height="2.4268081"
       x="29.657612"
       y="30.670725"
       ry="0" />
    <path
       d="m 32.177356,37.536631 c 0.123087,-0.123087 0.123087,-0.322981 0,-0.446068 L 30.916944,35.83015 c -0.09059,-0.09059 -0.225496,-0.117179 -0.34366,-0.06794 -0.118163,0.04923 -0.19497,0.16346 -0.19497,0.29147 l 9.82e-4,2.520825 c 0,0.127026 0.07681,0.242236 0.194969,0.291471 0.118164,0.04923 0.253068,0.02166 0.34366,-0.06794 l 1.260412,-1.260413 z"
       id="path7874-3"
       style="fill:#454a4f;fill-opacity:1;stroke-width:0.00984695" />
    <rect
       style="fill:#454a4f;fill-opacity:1;fill-rule:evenodd;stroke:none;stroke-width:0.529167;stroke-linecap:square;stroke-miterlimit:0;stroke-dasharray:none;stroke-opacity:1"
       id="rect7959-9"
       width="32.529556"
       height="2.4268081"
       x="34.446671"
       y="36.118469"
       ry="0" />
    <path
       d="m 32.177357,42.60927 c 0.123087,-0.123087 0.123087,-0.322981 0,-0.446068 l -1.260412,-1.260413 c -0.09059,-0.09059 -0.225496,-0.117179 -0.34366,-0.06794 -0.118163,0.04923 -0.19497,0.16346 -0.19497,0.29147 l 9.82e-4,2.520825 c 0,0.127026 0.07681,0.242236 0.194969,0.291471 0.118164,0.04923 0.253068,0.02166 0.34366,-0.06794 l 1.260412,-1.260413 z"
       id="path7874-3-9"
       style="fill:#454a4f;fill-opacity:1;stroke-width:0.00984695" />
    <rect
       style="fill:#454a4f;fill-opacity:1;fill-rule:evenodd;stroke:none;stroke-width:0.529167;stroke-linecap:square;stroke-miterlimit:0;stroke-dasharray:none;stroke-opacity:1"
       id="rect7959-9-5"
       width="32.529556"
       height="2.4268081"
       x="34.446671"
       y="41.191113"
       ry="0" />
    <path
       d="m 32.177352,47.681911 c 0.123087,-0.123087 0.123087,-0.322981 0,-0.446068 L 30.91694,45.97543 c -0.09059,-0.09059 -0.225496,-0.117179 -0.34366,-0.06794 -0.118163,0.04923 -0.19497,0.16346 -0.19497,0.29147 l 9.82e-4,2.520825 c 0,0.127026 0.07681,0.242236 0.194969,0.291471 0.118164,0.04923 0.253068,0.02166 0.34366,-0.06794 l 1.260412,-1.260413 z"
       id="path7874-3-6"
       style="fill:#454a4f;fill-opacity:1;stroke-width:0.00984695" />
    <rect
       style="fill:#454a4f;fill-opacity:1;fill-rule:evenodd;stroke:none;stroke-width:0.529167;stroke-linecap:square;stroke-miterlimit:0;stroke-dasharray:none;stroke-opacity:1"
       id="rect7959-9-1"
       width="32.529556"
       height="2.4268081"
       x="34.446667"
       y="46.263756"
       ry="0" />
    <path
       d="m 32.177353,52.75455 c 0.123087,-0.123087 0.123087,-0.322981 0,-0.446068 l -1.260412,-1.260413 c -0.09059,-0.09059 -0.225496,-0.117179 -0.34366,-0.06794 -0.118163,0.04923 -0.19497,0.16346 -0.19497,0.29147 l 9.82e-4,2.520825 c 0,0.127026 0.07681,0.242236 0.194969,0.291471 0.118164,0.04923 0.253068,0.02166 0.34366,-0.06794 l 1.260412,-1.260413 z"
       id="path7874-3-9-7"
       style="fill:#454a4f;fill-opacity:1;stroke-width:0.00984695" />
    <rect
       style="fill:#454a4f;fill-opacity:1;fill-rule:evenodd;stroke:none;stroke-width:0.529167;stroke-linecap:square;stroke-miterlimit:0;stroke-dasharray:none;stroke-opacity:1"
       id="rect7959-9-5-5"
       width="32.529556"
       height="2.4268081"
       x="34.446667"
       y="51.336399"
       ry="0" />
    <path
       d="m 32.177361,57.827192 c 0.123087,-0.123087 0.123087,-0.322981 0,-0.446068 l -1.260412,-1.260413 c -0.09059,-0.09059 -0.225496,-0.117179 -0.34366,-0.06794 -0.118163,0.04923 -0.19497,0.16346 -0.19497,0.29147 l 9.82e-4,2.520825 c 0,0.127026 0.07681,0.242236 0.194969,0.291471 0.118164,0.04923 0.253068,0.02166 0.34366,-0.06794 l 1.260412,-1.260413 z"
       id="path7874-3-6-8"
       style="fill:#454a4f;fill-opacity:1;stroke-width:0.00984695" />
    <rect
       style="fill:#454a4f;fill-opacity:1;fill-rule:evenodd;stroke:none;stroke-width:0.529167;stroke-linecap:square;stroke-miterlimit:0;stroke-dasharray:none;stroke-opacity:1"
       id="rect7959-9-1-9"
       width="32.529556"
       height="2.4268081"
       x="34.446674"
       y="56.409042"
       ry="0" />
    <path
       d="m 31.101349,63.530545 c 0.123087,0.123087 0.322981,0.123087 0.446068,0 l 1.260413,-1.260412 c 0.09059,-0.09059 0.117179,-0.225496 0.06794,-0.34366 -0.04923,-0.118163 -0.16346,-0.19497 -0.29147,-0.19497 l -2.520825,9.82e-4 c -0.127026,0 -0.242236,0.07681 -0.291471,0.194969 -0.04923,0.118164 -0.02166,0.253068 0.06794,0.34366 l 1.260413,1.260412 z"
       id="path7874-3-9-7-2"
       style="fill:#454a4f;fill-opacity:1;stroke-width:0.00984695" />
    <rect
       style="fill:#454a4f;fill-opacity:1;fill-rule:evenodd;stroke:none;stroke-width:0.529167;stroke-linecap:square;stroke-miterlimit:0;stroke-dasharray:none;stroke-opacity:1"
       id="rect7959-9-5-5-0"
       width="32.529556"
       height="2.4268081"
       x="34.446674"
       y="61.481686"
       ry="0" />
    <rect
       style="fill:#454a4f;fill-opacity:1;fill-rule:evenodd;stroke:none;stroke-width:0.529167;stroke-linecap:square;stroke-miterlimit:0;stroke-dasharray:none;stroke-opacity:1"
       id="rect7959-9-5-5-0-7"
       width="32.529556"
       height="2.4268081"
       x="37.092506"
       y="66.554291"
       ry="0" />
    <path
       style="fill:none;stroke:#454a4f;stroke-width:0.264583px;stroke-linecap:butt;stroke-linejoin:miter;stroke-opacity:1"
       d="M 26.539987,34.130216 V 169.97984"
       id="path8148" />
    <text
       xml:space="preserve"
       style="font-size:2.11667px;line-height:1.25;font-family:sans-serif;letter-spacing:0px;word-spacing:0px;stroke-width:0.264583"
       x="37.09251"
       y="68.451942"
       id="text21931"><tspan
         sodipodi:role="line"
         id="tspan21929"
         style="stroke-width:0.264583"
         x="37.09251"
         y="68.451942"> {j} data.json</tspan></text>
  </g>
</svg>
